<?xml version="1.0" encoding="UTF-8" standalone="no"?>
<!-- Generator: Adobe Illustrator 20.1.0, SVG Export Plug-In . SVG Version: 6.00 Build 0)  -->

<svg
   xmlns:dc="http://purl.org/dc/elements/1.1/"
   xmlns:cc="http://creativecommons.org/ns#"
   xmlns:rdf="http://www.w3.org/1999/02/22-rdf-syntax-ns#"
   xmlns:svg="http://www.w3.org/2000/svg"
   xmlns="http://www.w3.org/2000/svg"
   xmlns:sodipodi="http://sodipodi.sourceforge.net/DTD/sodipodi-0.dtd"
   xmlns:inkscape="http://www.inkscape.org/namespaces/inkscape"
   version="1.1"
   id="VNC_Automotive_Logo"
   x="0px"
   y="0px"
   viewBox="0 0 1219.6 108.3"
   xml:space="preserve"
   inkscape:version="0.48.4 r9939"
   width="100%"
   height="100%"
   sodipodi:docname="VNC Developer Coloured logo (1242x171).svg"><metadata
     id="metadata3128"><rdf:RDF><cc:Work
         rdf:about=""><dc:format>image/svg+xml</dc:format><dc:type
           rdf:resource="http://purl.org/dc/dcmitype/StillImage" /></cc:Work></rdf:RDF></metadata><defs
     id="defs3126" /><sodipodi:namedview
     pagecolor="#ffffff"
     bordercolor="#666666"
     borderopacity="1"
     objecttolerance="10"
     gridtolerance="10"
     guidetolerance="10"
     inkscape:pageopacity="0"
     inkscape:pageshadow="2"
     inkscape:window-width="640"
     inkscape:window-height="480"
     id="namedview3124"
     showgrid="false"
     fit-margin-top="0"
     fit-margin-left="0"
     fit-margin-right="0"
     fit-margin-bottom="0"
     inkscape:zoom="0.23510467"
     inkscape:cx="609.9"
     inkscape:cy="54.9"
     inkscape:window-x="65"
     inkscape:window-y="24"
     inkscape:window-maximized="0"
     inkscape:current-layer="VNC_Automotive_Logo" /><style
     type="text/css"
     id="style3098">
	.st0{fill:#85BC28;}
	.st1{fill:#94A1B5;}
</style><path
     class="st0"
     d="m 496.6,88.7 c -13.4,0 -25,-7.5 -30.9,-18.6 L 549.2,42 h 0 C 543.8,18 522.3,0 496.6,0 c -29.8,0 -53.9,24.1 -53.9,53.9 0,29.8 24.1,53.9 53.9,53.9 24.7,0 45.5,-16.6 51.9,-39.3 h -20.2 c -5.6,11.9 -17.7,20.2 -31.7,20.2 z m 0,-70.1 c 10.4,0 19.8,4.6 26.2,11.8 L 461.7,51 c 1.4,-18.2 16.5,-32.4 34.9,-32.4 z"
     id="path3100"
     inkscape:connector-curvature="0"
     style="fill:#85bc28" /><path
     class="st0"
     d="m 890.8,0.5 c -29.8,0 -53.9,24.1 -53.9,53.9 0,29.8 24.1,53.9 53.9,53.9 29.8,0 53.9,-24.1 53.9,-53.9 0,-29.8 -24.2,-53.9 -53.9,-53.9 m 0,88.3 C 871.6,88.8 856,73.2 856,54 c 0,-19.2 15.6,-34.8 34.8,-34.8 19.2,0 34.7,15.6 34.7,34.8 0.1,19.3 -15.5,34.8 -34.7,34.8"
     id="path3102"
     inkscape:connector-curvature="0"
     style="fill:#85bc28" /><path
     class="st0"
     d="m 1002.2,3.1 0,0 -28.3,0 v 0 h -19.1 v 102.2 h 19.1 V 82.4 h 28.2 v 0 c 21.8,0 39.7,-17.9 39.7,-39.7 0,-21.7 -17.8,-39.6 -39.6,-39.6 z m 0,60.2 0,0 -28.2,0 V 50.7 22.2 h 28.3 v 0 c 11.3,0 20.5,9 20.5,20.3 -0.1,11.3 -9.4,20.8 -20.6,20.8 z"
     id="path3104"
     inkscape:connector-curvature="0"
     style="fill:#85bc28" /><path
     class="st0"
     d="m 696.6,88.7 c -13.4,0 -25,-7.5 -30.9,-18.6 L 749.2,42 h 0 C 743.8,18 722.3,0 696.6,0 c -29.8,0 -53.9,24.1 -53.9,53.9 0,29.8 24.1,53.9 53.9,53.9 24.7,0 45.5,-16.6 51.9,-39.3 h -20.2 c -5.7,11.9 -17.7,20.2 -31.7,20.2 z m 0,-70.1 c 10.4,0 19.8,4.6 26.2,11.8 L 661.7,51 C 663,32.8 678.1,18.6 696.6,18.6 z"
     id="path3106"
     inkscape:connector-curvature="0"
     style="fill:#85bc28" /><path
     class="st0"
     d="m 1105.9,89.1 c -13.4,0 -25,-7.5 -30.9,-18.6 l 83.5,-28.1 h 0 c -5.4,-24 -26.9,-42 -52.6,-42 -29.8,0 -53.9,24.1 -53.9,53.9 0,29.8 24.1,53.9 53.9,53.9 24.7,0 45.5,-16.6 51.9,-39.3 h -20.2 c -5.7,12 -17.7,20.2 -31.7,20.2 z m 0,-70.1 c 10.4,0 19.8,4.6 26.2,11.8 L 1071,51.4 c 1.3,-18.1 16.4,-32.4 34.9,-32.4 z"
     id="path3108"
     inkscape:connector-curvature="0"
     style="fill:#85bc28" /><path
     class="st0"
     d="m 1219.6,3.1 c -28.2,0 -51.1,22.8 -51.1,51 h 0 v 51.2 h 19.1 V 54.2 h 0 c 0,-0.1 0,-0.2 0,-0.3 0,-17.7 14.3,-31.7 32,-31.7 l 0,-19.1 0,0 z"
     id="path3110"
     inkscape:connector-curvature="0"
     style="fill:#85bc28" /><path
     class="st0"
     d="m 834.2,85.8 h -23.9 v 0 c -17.7,0 -32,-14 -32,-31.7 0,-0.1 0,-0.2 0,-0.3 h 0 V 2.6 h -19.1 v 51.3 h 0 c 0,28.2 22.9,51 51.1,51 h 0 v 0 h 23.9 c 0,0 0,-19.1 0,-19.1 z"
     id="path3112"
     inkscape:connector-curvature="0"
     style="fill:#85bc28" /><path
     class="st0"
     d="M 647.4,2.6 H 628.3 L 596.5,86.5 564.7,2.6 H 545.6 L 580.2,94 h 0 c 2.7,6.4 9,10.8 16.3,10.8 8.1,0 14.9,-5.4 17,-12.8 L 647.4,2.6 z"
     id="path3114"
     inkscape:connector-curvature="0"
     style="fill:#85bc28" /><path
     class="st0"
     d="M 432.6,53.8 C 432.6,25.6 409.7,2.7 381.5,2.7 l 0,0 v 0 h -32 v 0 h -19.1 v 102.2 h 19.1 0 32 v 0 c 28.2,0 51.1,-22.9 51.1,-51.1 z m -51.2,32 0,0 -32,0 v -64 h 32 v 0 c 17.7,0 32,14.3 32,32 0.1,17.6 -14.3,32 -32,32 z"
     id="path3116"
     inkscape:connector-curvature="0"
     style="fill:#85bc28" /><path
     class="st1"
     d="M 101.8,2.6 H 82.7 L 50.9,86.5 19.1,2.6 H 0 L 34.6,94 h 0 c 2.7,6.4 9,10.8 16.3,10.8 8.1,0 14.9,-5.4 17,-12.8 L 101.8,2.6 z"
     id="path3118"
     inkscape:connector-curvature="0"
     style="fill:#94a1b5" /><path
     class="st1"
     d="m 287.6,85.8 h -36.1 v 0 c -17.7,0 -32,-14.3 -32,-32 0,-17.7 14.3,-32 32,-32 v 0 h 36.1 V 2.6 h -36.1 v 0 c -28.2,0 -51.1,22.9 -51.1,51.1 0,28.2 22.9,51.1 51.1,51.1 l 0,0 v 0 h 36.1 v -19 z"
     id="path3120"
     inkscape:connector-curvature="0"
     style="fill:#94a1b5" /><path
     class="st1"
     d="m 190.3,48.6 c 0,-25.4 -20.6,-45.9 -46,-45.9 -25.4,0 -46,20.6 -46,45.9 h 0 v 0 0 0 l 0,0 v 56.3 h 19.1 V 48.6 h 0 c 0,-0.1 0,-0.2 0,-0.3 0,-14.9 12.1,-26.9 26.9,-26.9 14.9,0 26.8,11.9 26.8,26.8 0,0.1 0,0.2 0,0.3 h 0 v 56.4 h 19.1 l 0.1,-56.3 0,0 z"
     id="path3122"
     inkscape:connector-curvature="0"
     style="fill:#94a1b5" /></svg>